<svg width="366" height="74" viewBox="0 0 366 74" fill="none" xmlns="http://www.w3.org/2000/svg">
<path d="M93.7168 1.80415C107.017 1.80415 115.355 10.5413 115.355 22.6443C115.355 32.1692 110.393 39.5149 101.861 42.3898L115.652 71.3634H103.743L90.7396 43.5765H73.6747V71.2611H62.7584V1.79391H93.7168V1.80415ZM104.439 22.6443C104.439 16.291 100.172 12.3214 93.0314 12.3214H73.6747V33.0593H93.0314C100.172 33.0593 104.439 29.192 104.439 22.6341V22.6443Z" fill="#E84A3B"/>
<path d="M142.426 1.80414V71.2713H131.509V1.80414H142.426Z" fill="#E84A3B"/>
<path d="M210.041 1.80415V12.3214H172.433V30.4811H205.979V40.9984H172.433V60.7438H210.041V71.2611H161.516V1.79391H210.041V1.80415Z" fill="#E84A3B"/>
<path d="M331.767 1.80414C351.513 1.80414 365.017 17.1913 365.017 36.64C365.017 56.0888 351.523 71.2713 331.767 71.2713H306.456V1.80414H331.767ZM353.702 36.64C353.702 22.8489 344.576 12.7204 331.675 12.7204H317.383V60.355H331.675C344.576 60.355 353.702 50.4312 353.702 36.64Z" fill="#E84A3B"/>
<path d="M242.176 73.5732C233.807 73.5732 224.855 66.3912 224.855 46.2467C224.855 33.315 227.495 22.8898 232.713 15.1144C228.559 13.3649 225.142 13.2933 225.101 13.2933L225.142 2.80675C225.295 2.80675 232.426 2.90906 240.109 7.14461C250.913 -1.28557 262.893 0.105813 264.275 0.300199C272.725 1.48697 279.212 5.35422 283.549 11.7996C291.673 23.8413 292.061 44.0369 284.726 73.5323L274.546 71.0053C282.629 38.5225 279.171 24.0664 274.853 17.6721C272.173 13.6923 268.336 11.4722 262.801 10.6947C260.09 10.3059 254.207 10.6435 248.714 13.9379C254.514 20.3321 259.098 30.4095 259.098 46.2672C259.098 62.125 251.977 73.5835 242.176 73.5835V73.5732ZM241.225 21.2631C237.316 27.2788 235.342 35.6374 235.342 46.2467C235.342 56.1604 238.155 63.0866 242.176 63.0866C244.365 63.0866 248.611 57.1426 248.611 46.257C248.611 35.3714 246.125 26.931 241.214 21.2631H241.225Z" fill="#E84A3B"/>
<path d="M48.6194 1.80414V12.3214H11.3997V32.5682H44.5476V43.0854H11.3997V71.2713H0.493698V1.80414H48.6194Z" fill="#E84A3B"/>
</svg>
